<?xml version="1.0" encoding="UTF-8"?>
<svg version="1.1" xmlns="http://www.w3.org/2000/svg" width="128" height="117">
<path d="M0 0 C-0.22816406 0.95519531 -0.45632812 1.91039063 -0.69140625 2.89453125 C-3.62458977 15.78413165 -3.58480392 26.05281864 3 38 C9.51037582 47.1952103 17.86478517 52.99252465 29 55 C36.65332769 55.59587953 43.60577287 55.00521414 51 53 C49.01597876 59.34886798 44.6309919 64.3690081 40 69 C51.88 69.33 63.76 69.66 76 70 C76 70.99 76 71.98 76 73 C72.7 73 69.4 73 66 73 C66 73.66 66 74.32 66 75 C69.3 75 72.6 75 76 75 C76 76.32 76 77.64 76 79 C75.01 79.495 75.01 79.495 74 80 C74 81.32 74 82.64 74 84 C64.76 84 55.52 84 46 84 C46 84.66 46 85.32 46 86 C50.62 86 55.24 86 60 86 C60 86.99 60 87.98 60 89 C49.44 89 38.88 89 28 89 C28 89.66 28 90.32 28 91 C29.98 91 31.96 91 34 91 C34 91.99 34 92.98 34 94 C19.81 94 5.62 94 -9 94 C-9 93.01 -9 92.02 -9 91 C-7.35 91 -5.7 91 -4 91 C-4 90.34 -4 89.68 -4 89 C-14.56 89 -25.12 89 -36 89 C-36 88.01 -36 87.02 -36 86 C-31.38 86 -26.76 86 -22 86 C-22 85.34 -22 84.68 -22 84 C-31.24 84 -40.48 84 -50 84 C-50 82.68 -50 81.36 -50 80 C-50.66 79.67 -51.32 79.34 -52 79 C-52 77.68 -52 76.36 -52 75 C-48.37 75 -44.74 75 -41 75 C-41 74.34 -41 73.68 -41 73 C-44.63 73 -48.26 73 -52 73 C-52 72.01 -52 71.02 -52 70 C-38.47 69.67 -24.94 69.34 -11 69 C-13.64 66.36 -16.28 63.72 -19 61 C-25.44635363 51.40023529 -27.42013845 40.54469859 -25.53515625 29.203125 C-22.86442898 18.0145161 -17.1916429 9.8567354 -8 3 C-2.84375 0 -2.84375 0 0 0 Z " fill="#FFFFFF" transform="translate(52,23)"/>
<path d="M0 0 C5.05236053 2.06888528 9.54223978 4.82605323 14.125 7.75 C15.39368673 8.53200274 16.66380581 9.31168617 17.93530273 10.08911133 C20.46090403 11.63993185 22.97520094 13.20687526 25.48095703 14.78955078 C28.61620206 16.76748131 31.7834156 18.68687738 34.96484375 20.58984375 C36.66502596 21.62080864 38.36432152 22.65323794 40.0625 23.6875 C40.82256348 24.14286133 41.58262695 24.59822266 42.36572266 25.06738281 C47.70018851 28.40775981 50.95891132 31.87673397 53 38 C53.0878506 39.73345807 53.11764814 41.47013269 53.11352539 43.20581055 C53.11341209 44.79712044 53.11341209 44.79712044 53.11329651 46.420578 C53.10813522 47.56440445 53.10297394 48.7082309 53.09765625 49.88671875 C53.0962413 51.05886429 53.09482635 52.23100983 53.09336853 53.43867493 C53.08776388 57.18830907 53.07521056 60.93788385 53.0625 64.6875 C53.0574856 67.22721268 53.05292259 69.7669263 53.04882812 72.30664062 C53.03779294 78.53778073 53.02105025 84.76888612 53 91 C50.03 91 47.06 91 44 91 C43.98541748 89.61288818 43.97083496 88.22577637 43.95581055 86.79663086 C43.89767702 81.63214822 43.82044457 76.46809471 43.73754883 71.30395508 C43.70437032 69.07225529 43.67631652 66.84047302 43.65356445 64.60864258 C43.61988874 61.39368666 43.56756515 58.1794818 43.51171875 54.96484375 C43.50532883 53.97290512 43.4989389 52.98096649 43.49235535 51.95896912 C43.3482198 45.11089909 42.88174994 39.77041797 37.70605469 34.79467773 C34.75897627 32.84015108 31.7800878 31.02908703 28.703125 29.28515625 C28.11005554 28.94753769 27.51698608 28.60991913 26.90594482 28.2620697 C25.02291702 27.19145659 23.13652526 26.1269356 21.25 25.0625 C19.38395387 24.00292843 17.51856863 22.94219985 15.65319824 21.88143921 C13.85643752 20.86369342 12.05436299 19.85584188 10.25195312 18.84814453 C8.28589794 17.73079936 6.33585404 16.58358903 4.41992188 15.38232422 C-0.74413061 12.19797474 -4.93236242 10.70115628 -11 12 C-14.6456998 13.41668127 -17.94398173 15.2723714 -21.3125 17.25 C-22.25585205 17.78705566 -23.1992041 18.32411133 -24.17114258 18.87744141 C-26.13668989 20.00243599 -28.09687342 21.13685049 -30.05175781 22.28027344 C-32.94399394 23.96733135 -35.85589102 25.61500941 -38.7734375 27.2578125 C-40.57937313 28.29470417 -42.38411186 29.33368397 -44.1875 30.375 C-45.03030518 30.84969727 -45.87311035 31.32439453 -46.74145508 31.81347656 C-47.52157959 32.27463867 -48.3017041 32.73580078 -49.10546875 33.2109375 C-49.78762451 33.60587402 -50.46978027 34.00081055 -51.17260742 34.40771484 C-54.38989502 37.21107486 -55.78134349 40.18074031 -56.29176331 44.42752075 C-56.4431292 47.38969304 -56.49351017 50.33871256 -56.51171875 53.3046875 C-56.52966995 54.38380402 -56.54762115 55.46292053 -56.56611633 56.57473755 C-56.62012867 60.00811909 -56.6540867 63.44136231 -56.6875 66.875 C-56.720681 69.20835254 -56.75517138 71.54168685 -56.79101562 73.875 C-56.87585032 79.58323341 -56.94270534 85.29142642 -57 91 C-59.97 91 -62.94 91 -66 91 C-66.10162353 83.43786121 -66.17155978 75.8758993 -66.21972656 68.31323242 C-66.23981149 65.74187641 -66.26708479 63.17056591 -66.30175781 60.59936523 C-66.35041081 56.89816034 -66.37300083 53.19756067 -66.390625 49.49609375 C-66.42159271 47.77851112 -66.42159271 47.77851112 -66.45318604 46.02622986 C-66.45502723 39.44092303 -66.04911235 35.29027537 -62 30 C-59.9909668 28.12573242 -59.9909668 28.12573242 -57.76171875 26.66796875 C-56.88306152 26.09095215 -56.0044043 25.51393555 -55.09912109 24.91943359 C-48.71809124 20.96735728 -42.28281714 17.11636036 -35.8125 13.3125 C-34.37544026 12.46324719 -32.93858998 11.61363985 -31.50195312 10.76367188 C-24.35598831 6.54110073 -24.35598831 6.54110073 -21.77557373 5.04415894 C-20.57317382 4.33706545 -19.38155834 3.61136323 -18.20050049 2.86917114 C-12.07685806 -0.88712054 -6.99963761 -1.22827851 0 0 Z " fill="#FFFFFF" transform="translate(71,0)"/>
<path d="M0 0 C2 3 2 3 3 5 C5.01669827 6.13350534 5.01669827 6.13350534 7 7 C6.34 7.66 5.68 8.32 5 9 C4.01 9 3.02 9 2 9 C1.67 10.65 1.34 12.3 1 14 C0.34 14 -0.32 14 -1 14 C-1.061875 13.38125 -1.12375 12.7625 -1.1875 12.125 C-1.828919 9.72238859 -1.828919 9.72238859 -4.5625 8.75 C-5.366875 8.5025 -6.17125 8.255 -7 8 C-6.67 7.34 -6.34 6.68 -6 6 C-4.68 6 -3.36 6 -2 6 C-1.34 4.02 -0.68 2.04 0 0 Z " fill="#FFFFFF" transform="translate(99,53)"/>
<path d="M0 0 C0.66 0.33 1.32 0.66 2 1 C2 1.99 2 2.98 2 4 C3.65 4.33 5.3 4.66 7 5 C6.34 5.66 5.68 6.32 5 7 C4.01 7 3.02 7 2 7 C1.67 8.65 1.34 10.3 1 12 C-1 9 -1 9 -1 7 C-2.32 6.67 -3.64 6.34 -5 6 C-4.360625 5.7525 -3.72125 5.505 -3.0625 5.25 C-0.81258459 4.18437567 -0.81258459 4.18437567 -0.25 1.875 C-0.1675 1.25625 -0.085 0.6375 0 0 Z " fill="#FFFFFF" transform="translate(22,75)"/>
<path d="M0 0 C0.66 0.33 1.32 0.66 2 1 C2 1.99 2 2.98 2 4 C2.99 4 3.98 4 5 4 C5 4.66 5 5.32 5 6 C4.01 6 3.02 6 2 6 C1.34 7.32 0.68 8.64 0 10 C-0.33 9.01 -0.66 8.02 -1 7 C-1.99 6.67 -2.98 6.34 -4 6 C-4 5.34 -4 4.68 -4 4 C-3.01 3.67 -2.02 3.34 -1 3 C-0.67 2.01 -0.34 1.02 0 0 Z " fill="#FFFFFF" transform="translate(58,37)"/>
<path d="M0 0 C1.65 1.65 3.3 3.3 5 5 C3.35 6.32 1.7 7.64 0 9 C-0.33 8.01 -0.66 7.02 -1 6 C-1.99 5.67 -2.98 5.34 -4 5 C-2.68 3.35 -1.36 1.7 0 0 Z " fill="#FFFFFF" transform="translate(78,60)"/>
<path d="M0 0 C0.66 0 1.32 0 2 0 C2 0.99 2 1.98 2 3 C2.99 3.33 3.98 3.66 5 4 C4.01 4.33 3.02 4.66 2 5 C2 5.99 2 6.98 2 8 C1.34 8 0.68 8 0 8 C0 7.01 0 6.02 0 5 C-0.99 4.67 -1.98 4.34 -3 4 C-2.01 3.67 -1.02 3.34 0 3 C0 2.01 0 1.02 0 0 Z " fill="#FFFFFF" transform="translate(91,32)"/>
<path d="M0 0 C0.66 0 1.32 0 2 0 C2 0.66 2 1.32 2 2 C2.99 2.33 3.98 2.66 5 3 C4.01 3.33 3.02 3.66 2 4 C2 4.99 2 5.98 2 7 C1.34 7 0.68 7 0 7 C0 6.01 0 5.02 0 4 C-0.99 3.67 -1.98 3.34 -3 3 C-2.01 2.67 -1.02 2.34 0 2 C0 1.34 0 0.68 0 0 Z " fill="#FFFFFF" transform="translate(71,46)"/>
<path d="M0 0 C0 0.66 0 1.32 0 2 C0.99 2.33 1.98 2.66 3 3 C1.68 4.32 0.36 5.64 -1 7 C-1.33 6.01 -1.66 5.02 -2 4 C-2.99 3.67 -3.98 3.34 -5 3 C-2.25 0 -2.25 0 0 0 Z " fill="#FFFFFF" transform="translate(22,39)"/>
<path d="M0 0 C0.66 0 1.32 0 2 0 C3.625 2 3.625 2 5 4 C4.01 4 3.02 4 2 4 C2 4.99 2 5.98 2 7 C1.34 7 0.68 7 0 7 C0 6.01 0 5.02 0 4 C-0.99 3.67 -1.98 3.34 -3 3 C-2.01 2.67 -1.02 2.34 0 2 C0 1.34 0 0.68 0 0 Z " fill="#FFFFFF" transform="translate(62,18)"/>
</svg>
